<svg xmlns="http://www.w3.org/2000/svg" width="1024" height="1024" viewBox="0 0 1024 1024">
<g>
<path d="M 525.34 666.50 C517.18,667.32 508.02,667.93 505.00,667.86 C496.53,667.65 479.86,666.16 478.08,665.46 C477.21,665.12 474.48,664.61 472.00,664.32 C464.70,663.50 445.23,657.21 435.01,652.38 C415.23,643.04 394.36,626.22 379.32,607.51 C357.18,579.96 346.00,547.13 346.00,509.64 C346.00,476.48 353.62,448.17 369.31,423.06 C390.88,388.54 426.72,362.29 465.50,352.62 C478.08,349.49 497.81,347.70 512.50,348.36 C542.22,349.69 559.07,353.86 582.21,365.61 C597.08,373.15 601.57,376.47 619.25,392.95 C625.24,398.53 636.97,413.34 641.08,420.50 C648.90,434.13 659.00,458.51 659.00,463.74 C659.00,464.76 659.40,466.03 659.89,466.55 C660.87,467.58 663.05,476.57 663.58,481.71 C663.88,484.64 663.63,484.97 660.70,485.46 C656.51,486.17 605.73,487.97 586.33,488.11 C573.01,488.20 570.85,487.99 568.65,486.36 C567.26,485.34 565.84,483.38 565.49,482.00 C563.82,475.52 556.44,462.68 550.94,456.68 C541.17,446.02 530.40,440.37 515.45,438.09 C501.92,436.03 489.24,437.91 476.06,443.93 C466.46,448.31 459.82,453.65 453.67,461.91 C449.46,467.56 449.02,468.27 445.15,475.56 C441.40,482.63 438.76,497.12 438.78,510.50 C438.80,521.45 439.10,523.37 442.19,532.54 C451.99,561.67 474.62,578.00 505.18,578.00 C526.81,578.00 546.40,568.18 556.31,552.38 C560.62,545.51 565.10,534.82 567.35,526.07 C568.85,520.21 570.47,516.11 571.63,515.23 C573.15,514.08 576.49,513.93 589.50,514.46 C610.87,515.33 651.40,517.84 656.97,518.65 C663.98,519.66 664.10,520.06 661.36,533.06 C658.96,544.44 658.03,547.87 655.27,555.50 C654.47,557.69 652.74,562.79 651.42,566.83 C650.11,570.86 647.62,576.94 645.89,580.33 C644.16,583.72 641.61,588.75 640.21,591.50 C638.82,594.25 636.50,598.08 635.06,600.00 C633.61,601.92 630.77,606.07 628.73,609.21 C623.06,617.97 601.03,638.75 592.88,643.05 C591.57,643.73 589.31,645.28 587.86,646.49 C584.07,649.64 569.23,656.70 562.90,658.37 C559.93,659.15 556.38,660.27 555.00,660.87 C549.72,663.14 539.63,665.06 525.34,666.50 Z" fill="rgb(13,74,149)"/>
<path d="M 514.90 552.00 C511.25,560.47 508.66,562.97 507.32,559.32 C500.94,541.95 496.49,534.53 486.48,524.52 C477.32,515.35 470.33,510.89 459.49,507.28 C454.12,505.48 451.99,504.31 452.20,503.25 C452.37,502.43 456.45,500.06 461.27,497.99 C473.11,492.89 481.46,487.27 489.15,479.22 C498.64,469.28 503.90,459.73 506.45,447.75 C506.85,445.86 507.66,445.00 509.04,445.00 C510.28,445.00 511.48,446.05 512.19,447.75 C516.75,458.73 522.42,469.45 526.48,474.81 C534.84,485.85 549.10,495.68 562.25,499.48 C570.90,501.98 570.06,504.11 558.74,508.37 C539.59,515.58 523.86,531.23 514.90,552.00 ZM 609.11 738.36 C606.98,739.61 603.13,740.40 597.46,740.75 L 589.00 741.28 L 589.00 707.00 L 597.25 707.00 C603.13,707.00 606.49,707.51 608.93,708.75 C620.23,714.51 620.34,731.79 609.11,738.36 ZM 525.22 730.25 C524.94,740.72 524.87,741.00 522.63,741.00 C521.37,741.00 520.03,740.70 519.67,740.33 C519.30,739.97 519.00,732.32 519.00,723.33 L 519.00 707.00 L 526.72 707.00 L 531.50 718.56 C534.13,724.91 536.60,729.75 536.99,729.31 C537.38,728.86 539.66,723.66 542.05,717.75 L 546.41 707.00 L 554.05 707.00 L 553.50 740.50 L 551.00 740.50 C548.53,740.50 548.50,740.37 548.21,731.25 C548.05,726.16 547.57,722.00 547.13,722.00 C546.70,722.00 544.58,726.16 542.42,731.25 C539.44,738.27 538.04,740.50 536.61,740.50 C534.34,740.50 534.02,739.98 529.24,728.50 L 525.50 719.50 ZM 431.00 735.00 C431.00,740.15 430.74,741.00 429.17,741.00 C428.16,741.00 427.03,740.70 426.67,740.33 C426.30,739.97 426.00,732.27 426.00,723.24 L 426.00 706.81 L 435.59 707.15 C444.66,707.48 445.31,707.65 447.59,710.31 C450.66,713.88 450.89,720.59 448.07,724.19 C445.91,726.93 440.13,729.00 434.63,729.00 L 431.00 729.00 ZM 642.10 736.50 C640.46,740.21 639.64,741.00 637.45,741.00 C634.15,741.00 634.18,740.86 641.34,721.50 L 646.52 707.50 L 654.33 707.50 L 660.17 723.45 C665.91,739.12 666.23,741.58 662.46,740.84 C660.58,740.47 659.55,739.07 658.02,734.75 C657.10,732.13 656.74,732.00 650.57,732.00 L 644.09 732.00 ZM 374.75 738.34 C372.05,740.35 363.02,741.57 360.00,740.33 C353.21,737.54 348.48,729.62 349.28,722.36 C350.40,712.10 356.30,706.52 365.99,706.55 C372.48,706.58 376.10,708.59 378.41,713.46 C380.50,717.86 380.47,718.00 377.19,718.00 C375.22,718.00 373.71,717.10 372.16,715.00 C370.29,712.48 369.27,712.01 365.72,712.03 C359.00,712.08 356.00,715.58 356.00,723.37 C356.00,729.60 357.38,732.63 361.08,734.54 C365.23,736.69 370.47,735.74 372.62,732.45 C373.71,730.79 375.16,730.00 377.12,730.00 C379.97,730.00 379.99,730.04 378.71,733.17 C378.00,734.92 376.22,737.24 374.75,738.34 ZM 582.00 735.00 L 582.00 741.00 L 572.17 741.00 C566.76,741.00 562.03,740.70 561.67,740.33 C561.30,739.97 561.00,732.32 561.00,723.33 L 561.00 707.00 L 582.00 707.00 L 582.00 709.50 C582.00,711.94 581.83,712.00 574.50,712.00 L 567.00 712.00 L 567.00 721.00 L 574.00 721.00 C580.80,721.00 581.00,721.07 581.00,723.50 C581.00,725.93 580.80,726.00 574.00,726.00 L 567.00 726.00 L 567.00 735.00 ZM 477.64 735.01 C474.39,740.06 473.33,741.00 470.89,741.00 C469.30,741.00 468.00,740.53 468.00,739.95 C468.00,739.38 470.25,735.58 473.00,731.50 C475.75,727.42 477.99,723.73 477.98,723.30 C477.97,722.86 475.94,719.39 473.48,715.59 C471.02,711.78 469.00,708.30 469.00,707.84 C469.00,707.38 470.34,707.00 471.97,707.00 C474.49,707.00 475.49,707.86 478.57,712.68 L 482.21 718.37 L 485.68 712.68 C488.84,707.53 489.48,707.00 492.64,707.00 C495.16,707.00 495.91,707.35 495.37,708.25 C494.96,708.94 492.68,712.54 490.31,716.26 C487.94,719.98 486.00,723.23 486.00,723.48 C486.00,723.73 488.25,727.26 491.00,731.31 C496.76,739.80 497.11,741.26 493.28,740.82 C491.28,740.58 489.54,739.04 486.73,735.00 C484.63,731.97 482.59,729.39 482.20,729.26 C481.82,729.13 479.76,731.71 477.64,735.01 ZM 594.74 735.41 C595.15,735.82 596.78,735.89 598.37,735.58 C599.95,735.26 602.13,735.00 603.20,735.00 C604.28,735.00 606.47,733.68 608.08,732.08 C610.60,729.55 611.00,728.40 611.00,723.63 C611.00,715.57 608.37,712.80 600.15,712.20 L 594.00 711.76 L 594.00 723.21 C594.00,729.51 594.33,735.00 594.74,735.41 ZM 406.82 737.75 L 406.50 740.50 L 396.95 740.78 C391.70,740.94 387.09,740.75 386.70,740.37 C386.32,739.98 386.00,732.32 386.00,723.33 L 386.00 707.00 L 392.00 707.00 L 392.00 735.00 L 407.13 735.00 ZM 418.77 723.75 C418.51,739.75 418.41,740.51 416.46,740.79 C415.34,740.95 414.10,740.77 413.71,740.38 C413.32,739.99 413.00,732.32 413.00,723.33 L 413.00 707.00 L 419.05 707.00 ZM 461.77 723.75 C461.51,739.75 461.41,740.51 459.46,740.79 C458.34,740.95 457.10,740.77 456.71,740.38 C456.32,739.99 456.00,732.32 456.00,723.33 L 456.00 707.00 L 462.05 707.00 ZM 628.77 723.75 C628.51,739.75 628.41,740.51 626.46,740.79 C625.34,740.95 624.10,740.77 623.71,740.38 C623.32,739.99 623.00,732.32 623.00,723.33 L 623.00 707.00 L 629.05 707.00 ZM 431.00 712.00 L 431.00 723.00 L 436.30 723.00 C442.26,723.00 444.00,721.84 444.00,717.87 C444.00,713.75 441.59,712.00 435.93,712.00 ZM 643.10 370.25 C643.04,373.41 642.55,376.00 642.00,376.00 C641.41,376.00 641.00,372.50 641.00,367.50 C641.00,357.56 642.43,356.35 645.42,363.75 C649.07,372.80 649.40,372.88 652.60,365.54 C656.58,356.40 658.00,356.92 658.00,367.50 C658.00,372.50 657.59,376.00 657.00,376.00 C656.45,376.00 656.00,373.98 656.00,371.50 C656.00,369.02 655.64,367.00 655.20,367.00 C654.76,367.00 653.41,369.02 652.21,371.50 C651.01,373.98 649.67,376.00 649.24,376.00 C648.81,376.00 647.27,373.41 645.82,370.25 L 643.20 364.50 ZM 646.00 726.18 C646.00,726.63 648.07,727.00 650.61,727.00 C653.87,727.00 655.08,726.64 654.75,725.75 C654.50,725.06 653.50,722.10 652.54,719.16 C651.57,716.22 650.44,714.20 650.02,714.66 C649.22,715.55 646.00,724.78 646.00,726.18 ZM 633.00 368.50 C633.00,372.83 632.58,376.00 632.00,376.00 C631.42,376.00 631.00,372.83 631.00,368.50 C631.00,361.74 630.81,361.00 629.06,361.00 C627.99,361.00 626.84,360.55 626.50,360.00 C626.11,359.38 628.16,359.00 631.94,359.00 C635.31,359.00 638.00,359.44 638.00,360.00 C638.00,360.55 636.88,361.00 635.50,361.00 C633.06,361.00 633.00,361.17 633.00,368.50 ZM 600.37 487.87 C592.50,488.14 585.75,488.38 581.88,488.53 L 567.26 489.09 L 566.05 484.29 C565.11,480.54 563.54,476.55 561.54,472.61 C563.40,476.17 564.85,479.54 565.49,482.00 C565.84,483.38 567.26,485.34 568.65,486.36 C570.85,487.99 573.01,488.20 586.33,488.11 C590.04,488.08 594.91,488.00 600.37,487.87 ZM 508.49 437.38 C497.69,436.97 486.55,439.14 476.06,443.93 C486.95,438.95 497.51,436.81 508.49,437.38 ZM 557.59 465.72 C554.88,461.52 551.78,457.55 548.53,454.17 C549.34,454.97 550.15,455.81 550.94,456.68 C553.02,458.95 555.38,462.20 557.59,465.72 ZM 662.51 485.05 C662.17,485.19 661.74,485.30 661.20,485.41 C661.06,485.44 660.79,485.47 660.41,485.51 C660.52,485.49 660.62,485.48 660.70,485.46 C661.48,485.33 662.07,485.21 662.51,485.05 ZM 663.58 481.71 C663.31,479.09 662.61,475.46 661.86,472.40 C662.61,475.45 663.31,479.07 663.58,481.68 C663.59,481.80 663.60,481.92 663.61,482.04 C663.60,481.93 663.59,481.82 663.58,481.71 Z" fill="rgb(30,73,129)"/>
<path d="M 0.00 512.00 L 0.00 0.00 L 512.00 0.00 L 1024.00 0.00 L 1024.00 512.00 L 1024.00 1024.00 L 512.00 1024.00 L 0.00 1024.00 L 0.00 512.00 ZM 374.75 738.34 C376.22,737.24 378.00,734.92 378.71,733.17 C379.99,730.04 379.97,730.00 377.12,730.00 C375.16,730.00 373.71,730.79 372.62,732.45 C370.47,735.74 365.23,736.69 361.08,734.54 C357.38,732.63 356.00,729.60 356.00,723.37 C356.00,715.58 359.00,712.08 365.72,712.03 C369.27,712.01 370.29,712.48 372.16,715.00 C373.71,717.10 375.22,718.00 377.19,718.00 C380.47,718.00 380.50,717.86 378.41,713.46 C376.10,708.59 372.48,706.58 365.99,706.55 C356.30,706.52 350.40,712.10 349.28,722.36 C348.48,729.62 353.21,737.54 360.00,740.33 C363.02,741.57 372.05,740.35 374.75,738.34 ZM 406.82 737.75 L 407.13 735.00 L 399.57 735.00 L 392.00 735.00 L 392.00 721.00 L 392.00 707.00 L 389.00 707.00 L 386.00 707.00 L 386.00 723.33 C386.00,732.32 386.32,739.98 386.70,740.37 C387.09,740.75 391.70,740.94 396.95,740.78 L 406.50 740.50 L 406.82 737.75 ZM 418.77 723.75 L 419.05 707.00 L 416.02 707.00 L 413.00 707.00 L 413.00 723.33 C413.00,732.32 413.32,739.99 413.71,740.38 C414.10,740.77 415.34,740.95 416.46,740.79 C418.41,740.51 418.51,739.75 418.77,723.75 ZM 431.00 735.00 L 431.00 729.00 L 434.63 729.00 C440.13,729.00 445.91,726.93 448.07,724.19 C450.89,720.59 450.66,713.88 447.59,710.31 C445.31,707.65 444.66,707.48 435.59,707.15 L 426.00 706.81 L 426.00 723.24 C426.00,732.27 426.30,739.97 426.67,740.33 C427.03,740.70 428.16,741.00 429.17,741.00 C430.74,741.00 431.00,740.15 431.00,735.00 ZM 461.77 723.75 L 462.05 707.00 L 459.02 707.00 L 456.00 707.00 L 456.00 723.33 C456.00,732.32 456.32,739.99 456.71,740.38 C457.10,740.77 458.34,740.95 459.46,740.79 C461.41,740.51 461.51,739.75 461.77,723.75 ZM 477.64 735.01 C479.76,731.71 481.82,729.13 482.20,729.26 C482.59,729.39 484.63,731.97 486.73,735.00 C489.54,739.04 491.28,740.58 493.28,740.82 C497.11,741.26 496.76,739.80 491.00,731.31 C488.25,727.26 486.00,723.73 486.00,723.48 C486.00,723.23 487.94,719.98 490.31,716.26 C492.68,712.54 494.96,708.94 495.37,708.25 C495.91,707.35 495.16,707.00 492.64,707.00 C489.48,707.00 488.84,707.53 485.68,712.68 L 482.21 718.37 L 478.57 712.68 C475.49,707.86 474.49,707.00 471.97,707.00 C470.34,707.00 469.00,707.38 469.00,707.84 C469.00,708.30 471.02,711.78 473.48,715.59 C475.94,719.39 477.97,722.86 477.98,723.30 C477.99,723.73 475.75,727.42 473.00,731.50 C470.25,735.58 468.00,739.38 468.00,739.95 C468.00,740.53 469.30,741.00 470.89,741.00 C473.33,741.00 474.39,740.06 477.64,735.01 ZM 525.22 730.25 L 525.50 719.50 L 529.24 728.50 C534.02,739.98 534.34,740.50 536.61,740.50 C538.04,740.50 539.44,738.27 542.42,731.25 C544.58,726.16 546.70,722.00 547.13,722.00 C547.57,722.00 548.05,726.16 548.21,731.25 C548.50,740.37 548.53,740.50 551.00,740.50 L 553.50 740.50 L 553.77 723.75 L 554.05 707.00 L 550.23 707.00 L 546.41 707.00 L 542.05 717.75 C539.66,723.66 537.38,728.86 536.99,729.31 C536.60,729.75 534.13,724.91 531.50,718.56 L 526.72 707.00 L 522.86 707.00 L 519.00 707.00 L 519.00 723.33 C519.00,732.32 519.30,739.97 519.67,740.33 C520.03,740.70 521.37,741.00 522.63,741.00 C524.87,741.00 524.94,740.72 525.22,730.25 ZM 582.00 738.00 L 582.00 735.00 L 574.50 735.00 L 567.00 735.00 L 567.00 730.50 L 567.00 726.00 L 574.00 726.00 C580.80,726.00 581.00,725.93 581.00,723.50 C581.00,721.07 580.80,721.00 574.00,721.00 L 567.00 721.00 L 567.00 716.50 L 567.00 712.00 L 574.50 712.00 C581.83,712.00 582.00,711.94 582.00,709.50 L 582.00 707.00 L 571.50 707.00 L 561.00 707.00 L 561.00 723.33 C561.00,732.32 561.30,739.97 561.67,740.33 C562.03,740.70 566.76,741.00 572.17,741.00 L 582.00 741.00 L 582.00 738.00 ZM 609.11 738.36 C620.34,731.79 620.23,714.51 608.93,708.75 C606.49,707.51 603.13,707.00 597.25,707.00 L 589.00 707.00 L 589.00 724.14 L 589.00 741.28 L 597.46 740.75 C603.13,740.40 606.98,739.61 609.11,738.36 ZM 628.77 723.75 L 629.05 707.00 L 626.02 707.00 L 623.00 707.00 L 623.00 723.33 C623.00,732.32 623.32,739.99 623.71,740.38 C624.10,740.77 625.34,740.95 626.46,740.79 C628.41,740.51 628.51,739.75 628.77,723.75 ZM 642.10 736.50 L 644.09 732.00 L 650.57 732.00 C656.74,732.00 657.10,732.13 658.02,734.75 C659.55,739.07 660.58,740.47 662.46,740.84 C666.23,741.58 665.91,739.12 660.17,723.45 L 654.33 707.50 L 650.42 707.50 L 646.52 707.50 L 641.34 721.50 C634.18,740.86 634.15,741.00 637.45,741.00 C639.64,741.00 640.46,740.21 642.10,736.50 ZM 525.34 666.50 C539.63,665.06 549.72,663.14 555.00,660.87 C556.38,660.27 559.93,659.15 562.90,658.37 C569.23,656.70 584.07,649.64 587.86,646.49 C589.31,645.28 591.57,643.73 592.88,643.05 C601.03,638.75 623.06,617.97 628.73,609.21 C630.77,606.07 633.61,601.92 635.06,600.00 C636.50,598.08 638.82,594.25 640.21,591.50 C641.61,588.75 644.16,583.72 645.89,580.33 C647.62,576.94 650.11,570.86 651.42,566.83 C652.74,562.79 654.47,557.69 655.27,555.50 C656.06,553.30 657.22,549.92 657.83,548.00 C659.04,544.21 664.00,521.29 664.00,519.50 C664.00,518.78 655.83,517.96 639.75,517.09 C626.41,516.37 609.20,515.35 601.50,514.83 C593.80,514.31 583.34,513.64 578.25,513.34 L 569.00 512.81 L 569.00 516.70 C569.00,524.61 562.97,541.53 556.28,552.38 C546.61,568.07 526.81,578.00 505.18,578.00 C474.62,578.00 451.99,561.67 442.19,532.54 C439.10,523.37 438.80,521.45 438.78,510.50 C438.76,497.12 441.40,482.63 445.15,475.56 C449.02,468.27 449.46,467.56 453.67,461.91 C459.82,453.65 466.46,448.31 476.06,443.93 C497.55,434.12 521.78,435.31 540.14,447.09 C551.07,454.11 562.64,470.71 566.05,484.29 L 567.26 489.09 L 581.88 488.53 C589.92,488.22 610.45,487.51 627.50,486.96 C644.55,486.41 659.72,485.71 661.20,485.41 C663.55,484.93 663.86,484.45 663.58,481.68 C663.05,476.56 660.86,467.58 659.89,466.55 C659.40,466.03 659.00,464.76 659.00,463.74 C659.00,458.51 648.90,434.13 641.08,420.50 C636.97,413.34 625.24,398.53 619.25,392.95 C601.57,376.47 597.08,373.15 582.21,365.61 C559.07,353.86 542.22,349.69 512.50,348.36 C497.81,347.70 478.08,349.49 465.50,352.62 C426.72,362.29 390.88,388.54 369.31,423.06 C353.62,448.17 346.00,476.48 346.00,509.64 C346.00,547.13 357.18,579.96 379.32,607.51 C394.36,626.22 415.23,643.04 435.01,652.38 C445.23,657.21 464.70,663.50 472.00,664.32 C474.48,664.61 477.21,665.12 478.08,665.46 C479.86,666.16 496.53,667.65 505.00,667.86 C508.02,667.93 517.18,667.32 525.34,666.50 ZM 514.90 552.00 C523.86,531.23 539.59,515.58 558.74,508.37 C570.06,504.11 570.90,501.98 562.25,499.48 C549.10,495.68 534.84,485.85 526.48,474.81 C522.42,469.45 516.75,458.73 512.19,447.75 C511.48,446.05 510.28,445.00 509.04,445.00 C507.66,445.00 506.85,445.86 506.45,447.75 C503.90,459.73 498.64,469.28 489.15,479.22 C481.46,487.27 473.11,492.89 461.27,497.99 C456.45,500.06 452.37,502.43 452.20,503.25 C451.99,504.31 454.12,505.48 459.49,507.28 C470.33,510.89 477.32,515.35 486.48,524.52 C496.49,534.53 500.94,541.95 507.32,559.32 C508.66,562.97 511.25,560.47 514.90,552.00 ZM 633.00 368.50 C633.00,361.17 633.06,361.00 635.50,361.00 C636.88,361.00 638.00,360.55 638.00,360.00 C638.00,359.44 635.31,359.00 631.94,359.00 C628.16,359.00 626.11,359.38 626.50,360.00 C626.84,360.55 627.99,361.00 629.06,361.00 C630.81,361.00 631.00,361.74 631.00,368.50 C631.00,372.83 631.42,376.00 632.00,376.00 C632.58,376.00 633.00,372.83 633.00,368.50 ZM 643.10 370.25 L 643.20 364.50 L 645.82 370.25 C647.27,373.41 648.81,376.00 649.24,376.00 C649.67,376.00 651.01,373.98 652.21,371.50 C653.41,369.02 654.76,367.00 655.20,367.00 C655.64,367.00 656.00,369.02 656.00,371.50 C656.00,373.98 656.45,376.00 657.00,376.00 C657.59,376.00 658.00,372.50 658.00,367.50 C658.00,356.92 656.58,356.40 652.60,365.54 C649.40,372.88 649.07,372.80 645.42,363.75 C642.43,356.35 641.00,357.56 641.00,367.50 C641.00,372.50 641.41,376.00 642.00,376.00 C642.55,376.00 643.04,373.41 643.10,370.25 ZM 431.00 717.50 L 431.00 712.00 L 435.93 712.00 C441.59,712.00 444.00,713.75 444.00,717.87 C444.00,721.84 442.26,723.00 436.30,723.00 L 431.00 723.00 L 431.00 717.50 ZM 594.74 735.41 C594.33,735.00 594.00,729.51 594.00,723.21 L 594.00 711.76 L 600.15 712.20 C608.37,712.80 611.00,715.57 611.00,723.63 C611.00,728.40 610.60,729.55 608.08,732.08 C606.47,733.68 604.28,735.00 603.20,735.00 C602.13,735.00 599.95,735.26 598.37,735.58 C596.78,735.89 595.15,735.82 594.74,735.41 ZM 646.00 726.18 C646.00,724.78 649.22,715.55 650.02,714.66 C650.44,714.20 651.57,716.22 652.54,719.16 C653.50,722.10 654.50,725.06 654.75,725.75 C655.08,726.64 653.87,727.00 650.61,727.00 C648.07,727.00 646.00,726.63 646.00,726.18 Z" fill="rgb(252,253,254)"/>
</g>
</svg>